<svg width="90" height="48" viewBox="0 0 90 48" fill="none" xmlns="http://www.w3.org/2000/svg">
<g clip-path="url(#clip0_20_20814)">
<path d="M4.76066 33.6752C5.46368 33.0916 6.17595 32.5255 6.8975 31.9768V39.6503C6.564 40.7928 6.23257 41.939 5.90319 43.0887C4.33762 44.3239 2.81888 45.6481 1.34698 47.0613C1.02378 46.4437 0.70418 45.8313 0.388184 45.224V20.8542C0.668154 19.7827 0.949668 18.7148 1.23273 17.6505C2.73654 16.2002 4.29336 14.84 5.90319 13.5698L6.8975 15.4226V21.1213C6.17698 21.6668 5.46934 22.2288 4.77456 22.8073V19.7796C3.95935 20.4559 3.15804 21.1553 2.37062 21.8778V40.9488C3.15289 40.2283 3.94957 39.533 4.76066 38.8629V33.6752Z" fill="#9F8B79"/>
<path d="M10.8455 39.5497C9.83572 40.2013 8.84142 40.8842 7.86255 41.5986V36.5205L8.26398 36.2287C8.82598 29.4693 9.39209 22.7196 9.96233 15.9797L9.46672 16.3132L9.45282 11.0252C10.5799 10.2563 11.726 9.52704 12.8912 8.8374V14.0621C12.76 14.1393 12.6287 14.2165 12.499 14.2953C13.1413 20.2652 13.7893 26.2481 14.4429 32.2438L14.8721 32.0091V37.1597C13.8222 37.731 12.7852 38.3341 11.761 38.9692V33.817L12.2675 33.5083C12.2129 33.0049 12.1614 32.5016 12.1131 31.9983C11.5675 32.3318 11.0271 32.674 10.4919 33.025L10.3205 34.7434C10.4965 34.6292 10.6725 34.5134 10.8486 34.4007L10.8455 39.5497ZM11.7193 28.2912L11.2747 24.0037L10.8115 28.864C11.1172 28.6695 11.4183 28.4796 11.7193 28.2912Z" fill="#9F8B79"/>
<path d="M19.1674 29.8817C19.9352 29.5389 20.7072 29.2111 21.4833 28.8982V24.9951C22.2707 24.6801 23.0633 24.3811 23.861 24.098V33.1595C21.1237 34.1293 18.4575 35.289 15.8818 36.6303V31.4797C16.1803 31.3253 16.4793 31.1709 16.7789 31.0165V11.8714C16.484 12.0181 16.1906 12.1694 15.8973 12.3207V7.09445C17.2529 6.39041 18.628 5.73783 20.0227 5.13672V10.434C19.7376 10.5575 19.4525 10.6831 19.1674 10.8108V29.8817Z" fill="#9F8B79"/>
<path d="M29.3312 26.3366V31.4872C27.8716 31.8588 26.4239 32.2844 24.988 32.7641V27.6196C25.2968 27.5177 25.6056 27.4173 25.9144 27.3185V8.16577C25.6056 8.26253 25.3015 8.36134 25.0019 8.46221V3.23747C26.4316 2.76193 27.8727 2.33838 29.325 1.9668V7.2641C29.0162 7.3413 28.7182 7.4185 28.4156 7.50342V26.5759C28.7244 26.4925 29.0286 26.4138 29.3312 26.3366Z" fill="#9F8B79"/>
<path d="M35.4082 30.2863C33.9043 30.5169 32.4072 30.802 30.9168 31.1417V25.9524C31.2256 25.8845 31.5174 25.8181 31.8185 25.7548V6.76418C31.5097 6.83108 31.2009 6.89953 30.8921 6.96952V1.62744C33.1201 1.11891 35.374 0.730811 37.6438 0.464844C38.0689 1.37784 38.4935 2.29495 38.9176 3.21617V14.3234C38.4698 15.3887 38.0236 16.4592 37.579 17.5348C36.5414 17.6583 35.5065 17.8065 34.4741 17.9795L34.4895 25.2469C34.7983 25.1944 35.1179 25.145 35.4313 25.0925C35.421 26.8258 35.4133 28.5571 35.4082 30.2863ZM36.1554 5.91809C35.5811 5.99838 35.0078 6.0869 34.4355 6.18365V12.6513C35.0078 12.5535 35.5811 12.4645 36.1554 12.3842V5.91809Z" fill="#9F8B79"/>
<path d="M43.6234 17.2969V24.3775C43.9322 24.3713 44.2436 24.3672 44.5575 24.3651V29.5158C43.0609 29.5261 41.5653 29.5899 40.0708 29.7072L40.1032 24.552C40.412 24.5288 40.7208 24.5072 41.0296 24.4871V5.34208C40.7131 5.36215 40.3966 5.38531 40.0816 5.40847V0.191451C41.5679 0.0761693 43.0578 0.0128654 44.5514 0.00154311V5.29885L43.6173 5.31275V11.89C44.3985 11.8725 45.1797 11.8699 45.961 11.8823V5.30503C45.6398 5.30503 45.3177 5.30245 44.9945 5.29731V0C46.4859 0 47.9784 0.0514651 49.4719 0.154395V5.45325C49.1631 5.43163 48.8574 5.41208 48.5548 5.39458V24.4686C48.8636 24.4861 49.1693 24.5056 49.4719 24.5273V29.6794C47.9774 29.5765 46.4808 29.525 44.9821 29.525V24.3775C45.311 24.3775 45.6383 24.3775 45.9656 24.3852V17.2892C45.1854 17.2799 44.4047 17.2825 43.6234 17.2969Z" fill="#9F8B79"/>
<path d="M51.6628 29.8709C51.3087 29.0474 50.9547 28.224 50.6006 27.4005V3.09715C51.0205 2.18519 51.44 1.27683 51.8589 0.37207C53.6643 0.567638 55.461 0.841431 57.2489 1.19345C57.6606 2.18776 58.0687 3.18567 58.4732 4.18718V28.2281C58.0769 29.0515 57.6796 29.8827 57.2813 30.7216C55.4193 30.3541 53.5465 30.0705 51.6628 29.8709ZM55.9396 6.24836C55.0132 6.08573 54.0868 5.94472 53.1605 5.82532V24.9333C54.0868 25.0537 55.0132 25.1947 55.9396 25.3563V6.24836Z" fill="#9F8B79"/>
<path d="M64.0362 32.4476C62.6024 31.9957 61.1552 31.5953 59.6946 31.2464V26.0942C60.0034 26.1663 60.307 26.2414 60.6055 26.3196V7.24869C60.308 7.17253 60.0095 7.09893 59.71 7.02791V1.76611C62.0744 2.3305 64.404 3.03161 66.6872 3.86589C67.0824 5.10105 67.4761 6.34497 67.8683 7.59763V18.5597L66.5467 21.0609C66.2873 20.9662 66.0269 20.8736 65.7654 20.783C66.3356 23.3429 66.9018 25.9115 67.4638 28.4889L67.9269 28.668V33.8202C66.7659 33.3642 65.5899 32.9442 64.399 32.5603V27.4112L64.9193 27.581C64.3944 25.1189 63.8684 22.663 63.3414 20.2133L63.2318 20.1793V27.0484C63.5004 27.1287 63.7691 27.212 64.0362 27.2954V32.4476ZM65.2636 8.67068C64.5894 8.43703 63.9121 8.21727 63.2318 8.01141V14.6612C63.9111 14.8671 64.5884 15.0832 65.2636 15.3097V8.67068Z" fill="#9F8B79"/>
<path d="M72.8924 36.0389C71.5646 35.3842 70.2198 34.7795 68.858 34.2247V28.8904C69.1668 29.0159 69.4756 29.1441 69.7844 29.2748V10.2394C69.4684 10.1046 69.1509 9.9723 68.8318 9.8426V4.69043C70.033 5.17935 71.2223 5.70789 72.3999 6.27607C72.9876 10.7618 73.5722 15.2562 74.1538 19.7594V12.194C73.8718 12.0458 73.5882 11.9007 73.3031 11.7587V6.71919C74.6823 7.41088 76.04 8.15661 77.376 8.95637V14.1086C77.0991 13.9428 76.8223 13.7797 76.5454 13.6191V32.6545C76.8233 32.8151 77.1002 32.9777 77.376 33.1424V38.4768C76.32 37.8458 75.251 37.2478 74.1692 36.6827C73.5043 31.319 72.8353 25.9666 72.1621 20.6256V30.4158L72.9001 30.774L72.8924 36.0389Z" fill="#9F8B79"/>
<path d="M82.1529 36.4573V41.6094C80.8889 40.6831 79.5987 39.8118 78.2822 38.9955V33.8449C78.5643 34.0209 78.8463 34.1995 79.1283 34.3806V15.2356C78.8514 15.0586 78.574 14.8831 78.2961 14.7091V9.48438C79.6054 10.2996 80.892 11.1678 82.156 12.089V17.3863C81.8935 17.1939 81.6295 17.0039 81.364 16.8166V35.8875C81.6275 36.0759 81.8904 36.2658 82.1529 36.4573Z" fill="#9F8B79"/>
<path d="M86.0498 44.6975C85.1173 43.8977 84.1673 43.1288 83.1997 42.3908V37.3112L83.595 37.62C84.1446 31.6891 84.6886 25.7707 85.2269 19.8645C85.0725 19.7348 84.9181 19.6067 84.7637 19.4785L84.7498 14.1704C85.8244 15.0443 86.8764 15.9583 87.9057 16.9125V22.1372L87.5567 21.8176C88.1301 28.6995 88.6962 35.5959 89.2551 42.5066L89.6195 42.8663V48C88.7302 47.1127 87.8223 46.2569 86.8959 45.4324V40.2802L87.3514 40.6894C87.3041 40.1109 87.2567 39.5319 87.2094 38.9524C86.7204 38.5109 86.2259 38.0791 85.7256 37.657C85.6731 38.148 85.6191 38.639 85.5712 39.13C85.7349 39.2674 85.8985 39.4063 86.0606 39.5468L86.0498 44.6975ZM86.8512 34.6927C86.7173 33.0458 86.582 31.404 86.4451 29.7674C86.3061 31.1673 86.1656 32.5682 86.0236 33.9701C86.3015 34.2079 86.5774 34.4487 86.8512 34.6927Z" fill="#9F8B79"/>
</g>
<defs>
<clipPath id="clip0_20_20814">
<rect width="89.2236" height="48" fill="white" transform="translate(0.388184)"/>
</clipPath>
</defs>
</svg>
